<svg version="1" xmlns="http://www.w3.org/2000/svg" width="478.667" height="478.667" viewBox="0 0 359.000000 359.000000"><path d="M158.6 12.2c.2 6.8.6 19.9.8 29.3l.3 17-8.7 17c-4.8 9.3-12.7 24.7-17.5 34.1-6.1 12.1-9.9 18.4-12.9 21.3l-4.3 4.2-6.8-17.3C100.7 95.2 99.2 92 99 94.5c-.1 1.1-.3 2.7-.5 3.5-.2.8-1.7 9.6-3.4 19.5-4.2 25.3-4 24.4-5.7 27.6-.8 1.6-6.8 11.9-13.3 22.8-12.4 20.7-12.7 21.3-13.6 27.1-.3 1.9-1 6-1.5 9s-1.2 7.2-1.6 9.4c-.3 2.1-.7 4.8-1 5.9-2.2 11.7-2.2 12.4 1 26.7 1.4 6.3 2.8 13.1 3.1 15 .3 1.9 1 5.1 1.5 7 .6 1.9 1 4.1 1 4.8 0 .8-7.2-2.4-17.6-7.8-9.7-4.9-17.8-9-18-9-.3 0 2.7 5 7.6 13 .5.8 4.8 7.8 9.5 15.5s8.9 14.7 9.4 15.5c.6.8 4.2 6.8 8.2 13.3l7.2 11.8 34.4 16.9 34.3 17h32.8c24.8 0 34-.4 38-1.4 2.8-.8 5.2-1.3 5.2-1.1 0 .2 1.8-.2 4-1s4-1.2 4-1c0 1.3 11-3 15.8-6.2 3.1-2.1 6.5-4.3 7.4-4.8 1-.6 10.9-7.1 22.1-14.4l20.4-13.5 4.8-9c2.6-5 7-13.4 9.8-18.6 2.7-5.2 6.6-12.7 8.7-16.5 2.1-3.9 6.6-12.4 10-19l6.3-12-5.4 4.5c-3 2.5-9.5 8-14.5 12.2-5.1 4.3-9.4 7.8-9.7 7.8-.3 0-.4-1-.2-2.3.8-5.1 1.6-10.4 2-13.7.3-1.9.7-5.3 1.1-7.5.3-2.2.7-5.1.9-6.5.2-1.4.6-4.5 1-7 .9-5.9 1.3-8.6 2-13.6.5-3.7-.7-7-11-30.9-6.4-14.7-11.8-27.2-12.1-27.7-.3-.5-1.4.6-2.4 2.4-1 1.8-6.1 11.2-11.4 20.8-10.6 19.3-10.1 19.4-7.1-1 .7-5.2 1.6-11.5 2-14 .3-2.5 1-7 1.5-10s1.1-7.4 1.4-9.8c.3-2.4.8-4.7 1-5.1.5-.7-2.2-6.4-11.5-23.9-2.7-5-7.2-13.6-10.1-19-2.8-5.3-6.8-12.9-8.8-16.7-2-3.9-5.9-11.1-8.5-16.2-5-9.6-4.9-9.5-22-23.4C190.6 26.1 160.4 1.7 159.3.8c-.8-.7-1 2.2-.7 11.4z"/></svg>